<svg width="65" height="65" viewBox="0 0 65 65" fill="none" xmlns="http://www.w3.org/2000/svg">
<circle cx="32.5" cy="32.1265" r="31.8848" fill="#FF5B5B" fill-opacity="0.1"/>
<g clip-path="url(#clip0_981:95)">
<path d="M49.969 40.1629L37.0953 18.6188C36.1121 16.9945 34.4023 16.0112 32.5 16.0112C30.5978 16.0112 28.8879 16.9945 27.9047 18.6188L15.031 40.1629C14.048 41.8515 14.0265 43.8606 14.9883 45.5491C15.9501 47.2375 17.6812 48.2421 19.6262 48.2421H45.3737C47.3187 48.2421 49.0499 47.2375 50.0116 45.5491C50.9735 43.8606 50.9521 41.8515 49.969 40.1629Z" fill="#FF5B5B"/>
<path d="M19.6258 46.1043C18.4423 46.1043 17.4301 45.5157 16.8456 44.4909C16.2612 43.465 16.2716 42.2784 16.879 41.2369L29.7407 19.7102C30.3293 18.7376 31.3646 18.1479 32.5 18.1479C33.6354 18.1479 34.6707 18.7375 35.2676 19.7249L48.1315 41.2536C48.7285 42.2785 48.7389 43.465 48.1545 44.4908C47.5701 45.5157 46.5577 46.1042 45.3743 46.1042L19.6258 46.1043Z" fill="#F34343"/>
<path d="M30.8962 26.3715L31.3377 34.6213C31.365 35.2937 31.9065 35.8548 32.5718 35.8937C33.2702 35.9362 33.8938 35.435 34.0061 34.7107L35.0088 26.4172C35.0772 25.7886 34.6018 25.2347 33.966 25.2325L31.9557 25.2482C31.3163 25.279 30.8617 25.7652 30.8962 26.3715Z" fill="white"/>
<path d="M34.5774 40.2295C34.227 41.2961 33.0633 41.839 32.0297 41.4923C30.9631 41.1419 30.4202 39.9781 30.767 38.9446C31.1174 37.878 32.2811 37.3351 33.3147 37.6818C34.3813 38.0322 34.9573 39.1996 34.5774 40.2295Z" fill="white"/>
</g>
<defs>
<clipPath id="clip0_981:95">
<rect width="36.4398" height="36.4398" fill="white" transform="translate(14.2802 13.9067)"/>
</clipPath>
</defs>
</svg>
